<svg xmlns="http://www.w3.org/2000/svg" xmlns:xlink="http://www.w3.org/1999/xlink" width="96" height="52" viewbox="0 0 96 52">
  <desc>
    CreationDate: Thu Sep 13 22:16:49 2012
    Creator: perl module Algorithm::Networksort version 1.20.
  </desc>
  <title>N = 4 Sorting Network.</title>
  <defs>


    <g id="inputline" style="fill:none; stroke-width:2" >
      <desc>Input line.</desc>
      <circle style="stroke:black" cx="18" cy="0" r="2" />
      <line style="stroke:black" x1="18" y1="0" x2="88" y2="0" />
      <circle style="stroke:black" cx="88" cy="0" r="2" />
    </g>




    <g id="inputline_top" style="fill:none; stroke-width:2" >
      <desc>Input line.</desc>
      <circle style="stroke:black" cx="18" cy="0" r="2" />
      <line style="stroke:black" x1="23" y1="0" x2="35" y2="0" />
      <line style="stroke:black" x1="43" y1="0" x2="88" y2="0" />
      <circle style="stroke:black" cx="88" cy="0" r="2" />
    </g>

    <g id="inputline_bottom" style="fill:none; stroke-width:2" >
      <desc>Input line.</desc>
      <circle style="stroke:black" cx="18" cy="0" r="2" />
      <line style="stroke:black" x1="23" y1="0" x2="35" y2="0" />
      <line style="stroke:black" x1="43" y1="0" x2="88" y2="0" />
      <circle style="stroke:black" cx="88" cy="0" r="2" />
    </g>




    <!-- Now the comparator lines, which vary in length. -->
    <!-- Define the input line template. -->
    <g id="inputline" style="fill:none; stroke:black; stroke-width:2" >
       <desc>Input line.</desc>
       <line x1="18" y1="0" x2="88" y2="0" style="marker-start: url(#inputbeginmark); marker-end: url(#inputendmark)" />
    </g>
    <!-- Define the comparator lines, which vary in length. -->
    <g id="comparator1_down" style="stroke-width:2" >
      <desc>Comparator size 1.</desc>
      <circle style="fill:black; stroke:black" cx="0" cy="0" r="2" />
      <line style="fill:black; stroke:black" x1="0" y1="0" x2="0" y2="14" />
      <circle style="fill:black; stroke:black" cx="0" cy="14" r="2" />
    </g>
    <g id="comparator2_down" style="stroke-width:2" >
      <desc>Comparator size 2.</desc>
      <circle style="fill:black; stroke:black" cx="0" cy="0" r="2" />
      <line style="fill:black; stroke:black" x1="0" y1="0" x2="0" y2="28" />
      <circle style="fill:black; stroke:black" cx="0" cy="28" r="2" />
    </g>
  </defs>

  <!-- Draw the input lines. -->
  <g id="inputgroup">
    <use xlink:href="#inputline_top" y = "5" />
    <use xlink:href="#inputline_bottom" y = "19" />
    <use xlink:href="#inputline" y = "33" />
    <use xlink:href="#inputline" y = "47" />
  </g>

  <line style="stroke-width:2; stroke:black" x1="44" y1="5" x2="34" y2="19" />
  <line style="stroke-width:2; stroke:black" x1="44" y1="19" x2="34" y2="5" />

  <!-- Draw the comparator lines. -->
  <!-- [0, 1] --> <use xlink:href="#comparator1_down" x = "27" y = "5" />
  <!-- [2, 3] --> <use xlink:href="#comparator1_down" x = "27" y = "33" />
  <!-- [0, 2] --> <use xlink:href="#comparator2_down" x = "51" y = "5" />
  <!-- [1, 3] --> <use xlink:href="#comparator2_down" x = "65" y = "19" />
  <!-- [0, 1] --> <use xlink:href="#comparator1_down" x = "79" y = "5" />
  <!-- [2, 3] --> <use xlink:href="#comparator1_down" x = "79" y = "33" />
</svg>
